<svg height="496pt" viewBox="0 0 496 496" width="496pt" 
    xmlns="http://www.w3.org/2000/svg">
    <path style="fill:#FFFFFF;" d="m216 176c0 4.417969-3.582031 8-8 8s-8-3.582031-8-8 3.582031-8 8-8 8 3.582031 8 8zm0 0"/>
    <path style="fill:#FFFFFF;" d="m296 176c0 4.417969-3.582031 8-8 8s-8-3.582031-8-8 3.582031-8 8-8 8 3.582031 8 8zm0 0"/>
    <path style="fill:#FFFFFF;" d="m240 360h16v16h-16zm0 0"/>
    <path style="fill:#FFFFFF;" d="m240 400h16v16h-16zm0 0"/>
    <path style="fill:#FFFFFF;" d="m240 440h16v16h-16zm0 0"/>
    <path style="fill:#FFFFFF;" d="m248 0c-136.753906 0-248 111.257812-248 248s111.246094 248 248 248 248-111.257812 248-248-111.246094-248-248-248zm98.558594 86.953125c-11.3125-2.367187-21.519532-8.847656-28.359375-18.425781-16.328125-22.871094-42.863281-36.527344-70.976563-36.527344-48.085937 0-87.222656 39.128906-87.222656 87.222656v16.777344h-8c-2.816406 0-5.488281.574219-8 1.472656v-17.472656c0-57.34375 46.65625-104 104-104 44.769531 0 84.535156 29.265625 98.558594 70.953125zm-60.03125 145.046875c-3.3125-9.289062-12.113282-16-22.527344-16h-24c-13.230469 0-24 10.769531-24 24s10.769531 24 24 24h24c10.414062 0 19.214844-6.710938 22.527344-16h21.296875c-12.9375 19.28125-34.921875 32-59.824219 32-39.703125 0-72-32.304688-72-72v-48.089844c21.34375-.445312 41.472656-8.238281 57.40625-22.261718l27.664062 13.832031c11.144532 5.574219 23.632813 8.519531 36.097657 8.519531 7.871093 0 15.535156-1.222656 22.832031-3.398438v51.398438c0 8.425781-1.527344 16.480469-4.199219 24zm-14.527344 8c0 4.40625-3.585938 8-8 8h-24c-4.414062 0-8-3.59375-8-8s3.585938-8 8-8h24c4.414062 0 8 3.59375 8 8zm120 189.695312c-22.496094 17.863282-48.34375 31.671876-76.472656 40.25l21.328125-37.328124-15.160157-37.898438 30.878907-23.167969-6.703125-46.964843 14.496094 3.101562c18.335937 3.9375 31.632812 20.375 31.632812 39.121094zm-62.792969-108.679687 6.207031 43.425781-33.117187 24.832032 16.839844 42.101562-25.160157 44.023438c-3.976562.800781-7.992187 1.488281-12.03125 2.089843l27.933594-160.617187zm-41.671875 30.945313-25.933594-18.871094 28.214844-20.523438 4.414063.945313zm-7.535156-52.03125-32 23.269531-32-23.269531v-10.042969c9.9375 3.898437 20.703125 6.113281 32 6.113281s22.0625-2.214844 32-6.113281zm-99.527344 170.015624c-28.128906-8.578124-53.976562-22.386718-76.472656-40.25v-62.894531c0-18.738281 13.296875-35.183593 31.625-39.113281l14.496094-3.101562-6.707032 46.964843 30.882813 23.167969-15.160156 37.898438zm-3.617187-38.5625 16.839843-42.101562-33.121093-24.832031 6.210937-43.425781 19.320313-4.144532 27.933593 160.617188c-4.046874-.601563-8.054687-1.28125-12.03125-2.089844zm24.921875-117.863281 4.414062-.945312 28.214844 20.523437-25.941406 18.863282zm-41.777344-113.519531h-8c-4.414062 0-8-3.59375-8-8v-32c0-4.40625 3.585938-8 8-8h8zm175.59375 16h16.40625v8c0 4.40625-3.585938 8-8 8h-11.40625c1.460938-5.160156 2.503906-10.496094 3-16zm16.40625-16h-16v-48h16zm-54.832031-56c-9.992188 0-20-2.359375-28.9375-6.832031l-37.804688-18.902344-4.082031 4.078125c-13.503906 13.503906-31.320312 21.144531-50.34375 21.632812v-24.753906c0-39.269531 31.953125-71.222656 71.222656-71.222656 22.953125 0 44.625 11.152344 57.960938 29.832031 11.710937 16.382813 30.71875 26.167969 50.863281 26.167969h.90625c-9.890625 23.871094-33.519531 40-59.785156 40zm-281.167969 104c0-100.214844 63.878906-185.785156 153.054688-218.152344-25.101563 22.007813-41.054688 54.214844-41.054688 90.152344v72c0 13.230469 10.769531 24 24 24h8.40625c2.488281 27.480469 17.65625 51.3125 39.59375 65.664062v15.871094l-67.734375 14.511719c-25.648437 5.496094-44.265625 28.527344-44.265625 54.761719v48.953125c-44.3125-42.28125-72-101.832031-72-167.761719zm214.609375 231.28125-19.089844-109.769531 36.480469-26.535157 36.488281 26.535157-19.097656 109.769531c-5.742187.429688-11.535156.71875-17.390625.71875s-11.648438-.289062-17.390625-.71875zm177.390625-63.519531v-48.953125c0-26.234375-18.617188-49.265625-44.265625-54.761719l-67.734375-14.519531v-15.871094c12.800781-8.367188 23.265625-19.976562 30.289062-33.664062h17.710938c13.230469 0 24-10.769532 24-24v-72c0-8.070313-6.03125-14.695313-13.800781-15.777344 9.480469-9.472656 16.710937-21.292969 20.554687-34.742188l3.855469-13.472656h-15.042969c-6.382812-23.046875-19.46875-43.097656-36.855468-58.230469 89.289062 32.300781 153.289062 117.925781 153.289062 218.230469 0 65.929688-27.6875 125.480469-72 167.761719zm0 0"/>
</svg>